<svg width="84" height="26" viewBox="0 0 84 26" fill="none" xmlns="http://www.w3.org/2000/svg">
<g id="Group">
<path id="Vector" d="M64.546 21.4395C64.0047 20.8157 63.5924 20.0917 63.3329 19.3089L63.2626 19.112L63.1922 18.8714L63.1483 18.7227L63.0779 18.4471L63.0428 18.2852C63.0076 18.1321 62.9768 17.9702 62.9505 17.8083C62.9452 17.7495 62.9364 17.6911 62.9241 17.6334L62.8889 17.349C62.8959 17.2865 62.8959 17.2234 62.8889 17.1609L62.867 16.9203L75.1743 13.9672C75.102 13.333 74.9128 12.7175 74.6161 12.1517C74.1598 11.1623 73.4176 10.3307 72.4843 9.76302C71.4506 9.11229 70.2892 8.6887 69.0778 8.52056L68.8712 8.48994C68.1408 8.4096 67.4038 8.4096 66.6735 8.48994C64.7356 8.69854 62.916 9.52046 61.4824 10.8349C60.0667 12.1169 59.1202 13.8316 58.7923 15.7084L58.7923 15.7828C58.7704 15.9053 58.7528 16.0234 58.7396 16.159C58.7264 16.2947 58.7396 16.3121 58.7132 16.3996C58.7189 16.4666 58.7189 16.5339 58.7132 16.6009C58.7219 16.7174 58.7219 16.8344 58.7132 16.9509L58.7132 17.5152C58.7418 18.5283 58.9564 19.5276 59.3462 20.4639C60.0412 22.0685 61.1898 23.4376 62.6522 24.4046C64.1145 25.3716 65.8277 25.8948 67.5833 25.9105C69.0681 25.9404 70.5383 25.6133 71.8689 24.9568C73.1851 24.3099 74.3204 23.3497 75.1743 22.1613L74.9633 21.632C74.093 23.2856 68.0888 25.3418 64.546 21.4395ZM70.1459 14.1729L62.8274 15.9228C62.8274 15.704 62.8274 15.4853 62.8582 15.2797L62.8582 15.2141C62.8545 15.1441 62.8545 15.074 62.8582 15.0041L62.8933 14.7197C62.9597 14.2646 63.0626 13.8154 63.201 13.3766C63.4493 12.5625 63.8294 11.7941 64.3263 11.1017C64.7795 10.4637 65.3619 9.92717 66.0361 9.52677C66.6814 9.14282 67.4205 8.94303 68.1723 8.9493C69.2214 8.9493 69.9891 9.24095 70.4755 9.82426C70.6527 10.0275 70.8006 10.2543 70.9151 10.498C71.403 11.7361 71.3678 13.7966 70.1459 14.1729Z" fill="black"/>
<path id="Vector_2" d="M42.5844 21.6222C41.7053 23.2934 35.7099 25.3452 32.1671 21.4472C31.5862 20.7733 31.1521 19.9868 30.8924 19.1373C30.5868 18.174 30.4384 17.1681 30.4529 16.158C30.4463 15.2149 30.5857 14.2765 30.8661 13.3756C31.1143 12.5614 31.4944 11.793 31.9913 11.1007C32.4365 10.4678 33.0081 9.93315 33.6704 9.53012C34.3158 9.14638 35.0548 8.94661 35.8066 8.95264C36.8556 8.95265 37.6234 9.2443 38.1098 9.82761C38.6111 10.4583 38.8699 11.2464 38.8395 12.05C38.8502 12.4674 38.7877 12.8834 38.6549 13.2794L42.391 12.4044C41.0328 8.90452 36.5318 8.41891 35.7011 8.41891C28.5716 8.30517 24.6596 14.9812 26.9629 20.4191C27.6587 22.0248 28.8079 23.3949 30.2708 24.3633C31.7337 25.3317 33.4476 25.8566 35.2044 25.8745C36.6892 25.9044 38.1594 25.5772 39.49 24.9208C40.8063 24.2741 41.9417 23.3138 42.7954 22.1253L42.5844 21.6222Z" fill="black"/>
<path id="Vector_3" d="M58.7915 21.6198C57.9124 23.291 51.9169 25.3428 48.3742 21.4448C47.7993 20.7754 47.3698 19.9949 47.1127 19.1524C46.8071 18.189 46.6587 17.1832 46.6731 16.1731C46.6665 15.23 46.8059 14.2915 47.0863 13.3907C47.3331 12.5768 47.7117 11.8084 48.2071 11.1158C48.6514 10.4773 49.2229 9.93673 49.8862 9.5277C50.5315 9.14375 51.2706 8.94396 52.0224 8.95022C53.0685 8.95022 53.8363 9.24188 54.3256 9.82519C54.8317 10.4541 55.0951 11.2423 55.0685 12.0476C55.0797 12.4653 55.0157 12.8817 54.8795 13.2769L58.5937 12.402C57.2442 8.9021 52.7433 8.42087 51.9213 8.42087C44.7918 8.30712 40.8799 14.9831 43.1831 20.4211C43.8744 22.0308 45.0212 23.4057 46.4838 24.3782C47.9463 25.3507 49.6614 25.8789 51.4202 25.8984C52.908 25.9296 54.3813 25.6024 55.7146 24.9446C57.0308 24.2977 58.1662 23.3375 59.02 22.1491L58.7915 21.6198Z" fill="black"/>
<path id="Vector_4" d="M80.5658 22.3991L80.5658 0.0874022L75.2912 1.36486L75.256 1.36486L75.256 1.85921C75.4407 1.85921 77.0362 2.2967 77.0362 3.39041L77.0362 22.3203C77.0362 24.709 75.3396 25.0546 74.1923 25.129L74.1923 25.5271L83.4097 25.5271L83.4097 25.129C82.2668 25.0546 80.6053 24.7046 80.5658 22.3991Z" fill="black"/>
<path id="Vector_5" d="M16.8151 0.0874018L11.5933 1.36048L11.5537 1.36048L11.5537 1.74547C11.7383 1.74547 13.2899 2.29232 12.8724 3.27666C10.89 7.64275 4.45942 22.2153 4.12097 22.8716C3.00891 25.059 1.43093 25.059 0.7804 25.129L0.7804 25.5271L8.956 25.5271L8.956 25.1202C8.956 25.1202 5.85279 25.1552 5.85279 23.5409C5.85279 22.561 7.45714 18.7067 7.89229 17.6524L18.5426 15.0669C18.5689 15.1325 21.4348 22.0404 21.4348 23.4972C21.4348 25.0721 18.8898 25.1202 18.7975 25.1202L18.7975 25.5184L29.4653 25.5184L29.4653 25.1202C28.7081 25.133 27.9637 24.9243 27.3245 24.5199C26.6854 24.1155 26.1796 23.5332 25.8698 22.8453C25.549 22.2153 16.8151 0.0874018 16.8151 0.0874018ZM18.1733 14.1744L8.34063 16.5631C8.39338 16.4362 13.7427 3.95914 13.8921 3.64415C14.1163 4.16475 18.1689 14.1744 18.1689 14.1744L18.1733 14.1744Z" fill="black"/>
</g>
</svg>
