<svg width="120" height="18" viewBox="0 0 120 18" fill="none" xmlns="http://www.w3.org/2000/svg">
<g id="Layer_1" clip-path="url(#clip0_801_64)">
<path id="Vector" d="M7.12737 1.30301L-0.000976562 17.3847H3.80327L5.23316 13.9409H12.6623L14.0921 17.3847H17.9861L10.7892 1.30301H7.12209H7.12737ZM6.40451 11.116L8.94771 4.98488L11.4909 11.116H6.40451Z" fill="white"/>
<path id="Vector_2" d="M23.3948 1.30301H19.6592V17.3847H23.3948V1.30301Z" fill="white"/>
<path id="Vector_3" d="M37.8624 5.62495C38.3268 5.16472 38.8808 4.81029 39.5245 4.55636C40.1682 4.30244 40.87 4.17548 41.635 4.17548C42.4581 4.17548 43.2179 4.3236 43.9039 4.62514C44.5898 4.92138 45.2335 5.3869 45.8297 6.01642L48.1883 3.81047C47.4074 2.90587 46.4523 2.21817 45.3126 1.74206C44.173 1.26596 42.8961 1.02791 41.4767 1.02791C40.1946 1.02791 39.018 1.22893 37.9469 1.63626C36.8758 2.0436 35.9471 2.62021 35.1504 3.3714C34.3537 4.12258 33.7416 5.00073 33.3037 6.01113C32.8657 7.02152 32.6494 8.13243 32.6494 9.34385C32.6494 10.5553 32.8657 11.6662 33.3037 12.6766C33.7416 13.687 34.3484 14.5704 35.124 15.3163C35.9049 16.0675 36.8283 16.6441 37.8941 17.0514C38.9652 17.4588 40.1313 17.6598 41.3976 17.6598C42.5426 17.6598 43.6875 17.4852 44.8325 17.1414C45.9775 16.7975 46.9958 16.2897 47.8822 15.6125V9.08993H44.4895V13.8086C44.2416 13.9409 43.9936 14.0573 43.7456 14.1419C43.0491 14.3853 42.3368 14.5069 41.6034 14.5069C40.87 14.5069 40.1418 14.3747 39.5087 14.1155C38.8755 13.8563 38.3268 13.4965 37.8572 13.0363C37.3929 12.5761 37.0341 12.0312 36.7808 11.3911C36.5275 10.7563 36.4009 10.0686 36.4009 9.33327C36.4009 8.59795 36.5275 7.87322 36.7808 7.2437C37.0341 6.61419 37.3929 6.07461 37.8572 5.61437L37.8624 5.62495Z" fill="white"/>
<path id="Vector_4" d="M54.4885 6.67241V5.0272H51.0747V17.3847H54.6468V11.5498C54.6468 10.3701 54.9423 9.49729 55.5385 8.93125C56.1347 8.36522 56.9367 8.07956 57.9445 8.07956C58.0659 8.07956 58.1925 8.08485 58.3244 8.10072C58.4563 8.11659 58.5882 8.13775 58.7254 8.16949V4.83676C57.5646 4.83676 56.5779 5.06423 55.7707 5.51389C55.2483 5.80484 54.8262 6.1963 54.4885 6.66711V6.67241Z" fill="white"/>
<path id="Vector_5" d="M70.2961 5.65669C69.2725 5.11182 68.1064 4.84203 66.7926 4.84203C65.4788 4.84203 64.3391 5.11182 63.3207 5.65669C62.3024 6.20157 61.5057 6.95275 60.9253 7.91025C60.3449 8.86775 60.0547 9.96807 60.0547 11.2059C60.0547 12.4438 60.3449 13.523 60.9253 14.4805C61.5057 15.438 62.3024 16.1944 63.3207 16.7446C64.3391 17.2948 65.4946 17.5699 66.7926 17.5699C68.0906 17.5699 69.2725 17.2948 70.2961 16.7446C71.3197 16.1944 72.1217 15.4433 72.7021 14.4911C73.2825 13.5441 73.5727 12.4491 73.5727 11.2059C73.5727 9.96278 73.2825 8.86775 72.7021 7.91025C72.1217 6.95275 71.3197 6.20157 70.2961 5.65669ZM69.531 13.0469C69.2461 13.5653 68.8715 13.9621 68.4071 14.2318C67.9428 14.5016 67.4046 14.6339 66.7926 14.6339C66.1805 14.6339 65.6845 14.5016 65.2097 14.2318C64.7348 13.9621 64.3602 13.5706 64.0753 13.0469C63.7903 12.5285 63.6532 11.9148 63.6532 11.2112C63.6532 10.5077 63.7956 9.87814 64.0753 9.37559C64.3602 8.86775 64.7348 8.48157 65.2097 8.21707C65.6845 7.94728 66.2175 7.81503 66.8137 7.81503C67.4099 7.81503 67.9375 7.94728 68.4071 8.21707C68.8715 8.48686 69.2461 8.87304 69.531 9.37559C69.8159 9.88343 69.9531 10.4918 69.9531 11.2112C69.9531 11.9307 69.8107 12.5285 69.531 13.0469Z" fill="white"/>
<path id="Vector_6" d="M89.597 13.4542L86.6581 5.02719H83.6083L80.5903 13.3696L77.6988 5.02719H74.3325L78.7752 17.3847H82.2365L85.0646 9.68243L87.8505 17.3847H91.2854L95.7545 5.02719H92.594L89.597 13.4542Z" fill="white"/>
<path id="Vector_7" d="M103.737 14.7238C103.278 14.7238 102.914 14.581 102.65 14.2848C102.381 13.9938 102.249 13.5865 102.249 13.068V8.05838H105.299V5.30227H102.249V2.29224H98.651V5.30227H96.7515V8.05838H98.651V13.1368C98.651 14.6074 99.0572 15.7131 99.8645 16.459C100.672 17.1996 101.806 17.5752 103.257 17.5752C103.806 17.5752 104.339 17.5117 104.851 17.3794C105.362 17.2472 105.795 17.0567 106.143 16.7922L105.204 14.2636C104.808 14.5704 104.318 14.7238 103.737 14.7238Z" fill="white"/>
<path id="Vector_8" d="M119.335 7.22255C118.892 6.41847 118.285 5.82069 117.515 5.42923C116.744 5.03776 115.869 4.84203 114.892 4.84203C113.837 4.84203 112.898 5.06422 112.075 5.50858C111.658 5.73076 111.294 6.00584 110.977 6.32324V0.34021H107.405V17.3847H110.977V11.2747C110.977 10.4918 111.104 9.86757 111.357 9.39147C111.611 8.91536 111.959 8.55564 112.413 8.3123C112.861 8.06896 113.373 7.942 113.937 7.942C114.734 7.942 115.346 8.18005 115.784 8.65615C116.222 9.13226 116.438 9.86757 116.438 10.8621V17.3847H120.01V10.3066C120.01 9.05291 119.789 8.02135 119.346 7.21726L119.335 7.22255Z" fill="white"/>
</g>
<defs>
<clipPath id="clip0_801_64">
<rect width="120" height="17.3196" fill="white" transform="translate(0 0.34021)"/>
</clipPath>
</defs>
</svg>
